# xmcd
#
# Track frame offsets: 
#        182
#        18060
#        39530
#        54147
#        72557
#        87335
#        110625
#        124757
#        137030
#        158180
#        170112
#
# Disc length: 2453 seconds
#
# Revision: 5
# Processed by: cddbd v1.5.2PL0 Copyright (c) Steve Scherf et al.
# Submitted via: ExactAudioCopy v1.3
#
DISCID=9309930b
DTITLE=Henri Salvador - Monsieur Henri
DYEAR=1994
DGENRE=Chanson
TTITLE0=Qu'ça saute
TTITLE1=En plantant des navets
TTITLE2=Qu'est c'que j'aime
TTITLE3=Layla
TTITLE4=J'ai dû faire le con quelque part
TTITLE5=La main au cul
TTITLE6=Vas-y-mollo
TTITLE7=Pieds palmés
TTITLE8=Yes or no
TTITLE9=Rock hoquet
TTITLE10=Envie de toi
EXTD=Titres corrigés (accents, cédilles, apostrophes, etc.)
EXTT0=
EXTT1=
EXTT2=
EXTT3=
EXTT4=
EXTT5=
EXTT6=
EXTT7=
EXTT8=
EXTT9=
EXTT10=
PLAYORDER=
